<?xml version="1.0" encoding="UTF-8" standalone="no"?>
<svg
   xmlns:dc="http://purl.org/dc/elements/1.1/"
   xmlns:cc="http://creativecommons.org/ns#"
   xmlns:rdf="http://www.w3.org/1999/02/22-rdf-syntax-ns#"
   xmlns:svg="http://www.w3.org/2000/svg"
   xmlns="http://www.w3.org/2000/svg"
   xmlns:sodipodi="http://sodipodi.sourceforge.net/DTD/sodipodi-0.dtd"
   xmlns:inkscape="http://www.inkscape.org/namespaces/inkscape"
   inkscape:version="1.0 (4035a4f, 2020-05-01)"
   sodipodi:docname="loopback4.svg"
   id="svg14"
   preserveAspectRatio="xMidYMid"
   version="1.1"
   viewBox="0 0 256 293"
   height="293px"
   width="256px">
  <metadata
     id="metadata20">
    <rdf:RDF>
      <cc:Work
         rdf:about="">
        <dc:format>image/svg+xml</dc:format>
        <dc:type
           rdf:resource="http://purl.org/dc/dcmitype/StillImage" />
      </cc:Work>
    </rdf:RDF>
  </metadata>
  <defs
     id="defs18" />
  <sodipodi:namedview
     inkscape:current-layer="svg14"
     inkscape:window-maximized="0"
     inkscape:window-y="0"
     inkscape:window-x="0"
     inkscape:cy="146.5"
     inkscape:cx="128"
     inkscape:zoom="1.6450512"
     showgrid="false"
     id="namedview16"
     inkscape:window-height="800"
     inkscape:window-width="1280"
     inkscape:pageshadow="2"
     inkscape:pageopacity="0"
     guidetolerance="10"
     gridtolerance="10"
     objecttolerance="10"
     borderopacity="1"
     bordercolor="#666666"
     pagecolor="#ffffff" />
  <g
     id="g12">
    <path
       id="path10"
       fill-rule="nonzero"
       fill="#3F5DFF"
       d="M255.268469,75.5432315 C255.261118,73.4600917 254.146826,71.5379394 252.342756,70.496376 L130.194226,0.783942514 C128.383788,-0.261314171 126.153237,-0.261314171 124.342799,0.783942514 L2.92569736,71.7324899 C1.11031769,72.7805895 -0.00572278901,74.7197098 -3.77174411e-05,76.8159167 L0.731412388,217.440326 C0.738763832,219.523466 1.85305503,221.445618 3.65712568,222.487182 L125.805656,292.170358 C127.616093,293.215615 129.846645,293.215615 131.657082,292.170358 L253.074184,221.221811 C254.889564,220.173711 256.005604,218.234591 255.999919,216.138384 L255.268469,75.5432315 Z M127.692741,72.8515752 L178.973181,102.108708 L179.134095,153.572005 L158.92473,142.044695 L158.829644,113.848133 L127.817084,96.1548816 L96.9581226,114.18459 L97.045894,142.366523 L90.1631535,146.37475 L76.9169866,154.881262 L76.748758,102.606079 L127.692741,72.8515752 Z M118.813201,129.668927 L104.294349,138.131553 L104.243149,121.37453 L118.813201,129.668927 Z M36.5714002,168.281029 L36.5714002,125.529043 L69.4856748,106.263221 L69.5588176,129.581156 L56.7953934,137.041725 L56.8977933,156.629375 L73.9108161,166.328115 L151.588504,120.979559 L151.654333,144.297494 L74.0424732,189.64605 L36.5714002,168.281029 Z M128.307141,220.16124 L84.8456696,195.351191 L103.965206,183.063195 L128.182798,196.872562 L152.627132,182.587767 L172.865754,194.129706 L128.307141,220.16124 Z M182.432836,189.097479 L137.311023,163.373145 L157.352159,151.611777 L182.279237,165.801487 L199.189859,155.91989 L199.087459,136.332239 L186.316721,129.017956 L186.243578,105.751221 L219.428481,124.702529 L219.428481,167.454515 L182.432836,189.097479 Z" />
  </g>
  <path
     id="path22"
     d="m 55.203067,178.55105 -18.391332,-10.47117 0.154817,-21.22647 0.154817,-21.22647 13.069502,-7.66202 c 7.188227,-4.21411 14.368854,-8.4195 15.956951,-9.34532 l 2.887448,-1.6833 v 11.26177 11.26176 l -6.38278,3.72334 -6.38278,3.72335 v 5.61685 c 0,3.08927 0.171316,7.64353 0.380704,10.12058 l 0.380705,4.50373 8.397836,4.74678 c 7.569647,4.27865 8.53596,4.67285 9.798416,3.99721 0.77032,-0.41227 18.156698,-10.53215 38.636399,-22.48863 l 37.23582,-21.73905 -0.0254,11.35421 -0.0254,11.35421 -38.06338,22.18776 c -20.934859,12.20326 -38.362118,22.24947 -38.727241,22.32491 -0.365123,0.0754 -8.93996,-4.57488 -19.055192,-10.33403 z"
     style="opacity:0.0900322;fill:#f9f9f9;stroke:#ffffff;stroke-width:3" />
</svg>
