<svg xmlns="http://www.w3.org/2000/svg" xmlns:svg="http://www.w3.org/2000/svg" id="svg62" width="1000" height="700" version="1.1"><metadata id="metadata68"/><rect id="rect40" width="1009.424" height="709.193" x="-1.623" y="-1.623" style="opacity:1;fill:#f5da81;fill-opacity:1;stroke:#fff;stroke-width:3"/><path id="path1" fill="#e5712d" stroke="#000" d="m 279.27172,126.25116 q -503.67047,193.14356 0,455.26698" style="stroke-width:1;opacity:1;stroke-miterlimit:4;stroke-dasharray:none"/><path id="path2" fill="#e5712d" stroke="#000" d="m 279.27172,153.84309 q -455.3733,165.55163 0,400.08311" style="stroke-width:1;opacity:1;stroke-miterlimit:4;stroke-dasharray:none"/><path id="path3" fill="#e5712d" stroke="#000" d="m 279.27172,181.43503 q -407.07614,137.95969 0,344.89923" style="stroke-width:1;opacity:1;stroke-miterlimit:4;stroke-dasharray:none"/><path id="path4" fill="#e5712d" stroke="#000" d="m 279.27172,209.02697 q -358.77897,110.36775 0,289.71535" style="stroke-width:1;opacity:1;stroke-miterlimit:4;stroke-dasharray:none"/><path id="path5" fill="#e5712d" stroke="#000" d="m 279.27172,236.61891 q -310.481798,82.77581 0,234.53147" style="stroke-width:1;opacity:1;stroke-miterlimit:4;stroke-dasharray:none"/><path id="path6" fill="green" stroke="#000" d="m 279.27172,264.21085 q -262.184628,55.18387 0,179.3476" style="stroke-width:1;opacity:1;stroke-miterlimit:4;stroke-dasharray:none"/><path style="stroke-width:1;stroke-miterlimit:4;stroke-dasharray:none" id="path192" fill="#e5712d" stroke="#000" d="m 720.84587,126.25116 q 503.67043,193.14356 0,455.26698"/><path style="stroke-width:1;stroke-miterlimit:4;stroke-dasharray:none" id="path194" fill="#e5712d" stroke="#000" d="m 720.84587,153.84309 q 455.37333,165.55163 0,400.08311"/><path style="stroke-width:1;stroke-miterlimit:4;stroke-dasharray:none" id="path196" fill="#e5712d" stroke="#000" d="m 720.84587,181.43503 q 407.07613,137.95969 0,344.89923"/><path style="stroke-width:1;stroke-miterlimit:4;stroke-dasharray:none" id="path198" fill="#e5712d" stroke="#000" d="m 720.84587,209.02697 q 358.77893,110.36775 0,289.71535"/><path style="stroke-width:1;stroke-miterlimit:4;stroke-dasharray:none" id="path200" fill="#e5712d" stroke="#000" d="m 720.84587,236.61891 q 310.48183,82.77581 0,234.53147"/><path style="stroke-width:1;stroke-miterlimit:4;stroke-dasharray:none" id="path202" fill="green" stroke="#000" d="m 720.84587,264.21085 q 262.18463,55.18387 0,179.3476"/><path id="path70" fill="#e5712d" stroke="#000" d="M 279.27172,126.25116 H 720.84587 V 581.51813 H 279.27172 V 126.25116" style="stroke-width:1;stroke-miterlimit:4;stroke-dasharray:none"/><path id="path75" fill="#e5712d" stroke="#000" d="m 279.27172,153.84311 h 441.57415 v 400.0831 H 279.27172 v -400.0831" style="stroke-width:1;stroke-miterlimit:4;stroke-dasharray:none"/><path id="path80" fill="#e5712d" stroke="#000" d="M 279.27172,181.43504 H 720.84587 V 526.33428 H 279.27172 V 181.43504" style="stroke-width:1;stroke-miterlimit:4;stroke-dasharray:none"/><path id="path85" fill="#e5712d" stroke="#000" d="M 279.27172,209.02698 H 720.84587 V 498.74233 H 279.27172 V 209.02698" style="stroke-width:1;stroke-miterlimit:4;stroke-dasharray:none"/><path id="path4D" d="M 277.8918,443.55846 H 719.46595" style="stroke-width:1;stroke-miterlimit:4;stroke-dasharray:none"/><path id="path90" fill="#e5712d" stroke="#000" d="M 279.27172,236.61892 H 720.84587 V 471.15039 H 279.27172 V 236.61892" style="stroke-width:1;stroke-miterlimit:4;stroke-dasharray:none"/><path id="path5D" d="M 277.8918,415.96652 H 719.46595" style="stroke-width:1;stroke-miterlimit:4;stroke-dasharray:none"/><path id="path95" fill="green" stroke="#000" d="M 279.27172,264.21085 H 720.84587 V 443.55844 H 279.27172 V 224.35583" style="stroke-width:1;stroke-miterlimit:4;stroke-dasharray:none"/><path id="path6D" d="M 277.8918,388.37458 H 719.46595" style="stroke-width:1;stroke-miterlimit:4;stroke-dasharray:none"/><path id="path1U" d="M 719.46595,126.25116 H 277.8918" style="stroke-width:1;stroke-miterlimit:4;stroke-dasharray:none"/><path id="path2U" d="M 719.46595,153.8431 H 277.8918" style="stroke-width:1;stroke-miterlimit:4;stroke-dasharray:none"/><path id="path3U" d="M 719.46595,153.8431 H 277.8918" style="stroke-width:1;stroke-miterlimit:4;stroke-dasharray:none"/><path id="path5U" d="M 719.46595,236.61892 H 277.8918" style="stroke-width:1;stroke-miterlimit:4;stroke-dasharray:none"/><path id="path6U" d="M 719.46595,264.21086 H 277.8918" style="stroke-width:1;stroke-miterlimit:4;stroke-dasharray:none"/></svg>