<svg xmlns="http://www.w3.org/2000/svg" xmlns:svg="http://www.w3.org/2000/svg" xmlns:xlink="http://www.w3.org/1999/xlink" id="30b67e24-71e0-4c14-b173-6690a8f5300f" width="566.61" height="876.03" data-name="Layer 1" version="1.1" viewBox="0 0 566.61 876.03"><metadata id="metadata373"/><defs id="defs226"><rect id="rect58" width="91.664" height="58.233" x="306.265" y="133.721"/><linearGradient id="80eb2e63-b174-4995-98de-a6f06d09e993" x1="660.62" x2="660.62" y1="785.23" y2="108.23" gradientTransform="translate(51.69 -65.88) rotate(6.1)" gradientUnits="userSpaceOnUse"><stop id="stop218" offset="0" stop-color="gray" stop-opacity=".25"/><stop id="stop220" offset=".54" stop-color="gray" stop-opacity=".12"/><stop id="stop222" offset="1" stop-color="gray" stop-opacity=".1"/></linearGradient><linearGradient id="897a3ab3-8922-4256-a8e6-4a2ee8dcb308" x1="636.28" x2="636.28" y1="829.65" y2="226.73" gradientTransform="matrix(0.97, 0.05, -0.05, 1, 52.93, -28.22)" xlink:href="#80eb2e63-b174-4995-98de-a6f06d09e993"/><linearGradient id="linearGradient79" x1="660.62" x2="660.62" y1="785.23" y2="108.23" gradientTransform="rotate(6.1,1549.3011,-3474.2206)" gradientUnits="userSpaceOnUse" xlink:href="#80eb2e63-b174-4995-98de-a6f06d09e993"/></defs><title id="title228">be_the_hero</title><g id="g3965" transform="translate(63.059801,34.396255)"><path style="fill:url(#linearGradient79)" id="path232" fill="url(#80eb2e63-b174-4995-98de-a6f06d09e993)" d="m 391.99741,667.05372 c 1.61,-22.22 1.12,-39.26 -1,-41 -0.9,-0.75 -1.73,-3.45 -2.39,-6.3 2.27,-1.7 3.49,-3.69 2.94,-6 -2.66,-11.1 -44.74,-92.82 -51.51,-94.31 -6.77,-1.49 -5.37,-122.59 -5.37,-122.59 l 9.88,-92.38 h -0.14 a 67.34,67.34 0 0 1 4.07,-14.6 c 0.38,-0.93 0.78,-1.83 1.18,-2.72 8.18,0.29 16,-3.34 22.76,-12.89 7.36,-10.4 14.2,-19.65 20.4,-27.76 14.64,-11.4 32.66,-29 37.89,-49.41 9.25,-36.08 -33,-73 -33,-73 l -13.15,-8.85 c -0.17,-0.5 -0.32,-1 -0.46,-1.5 -0.14,-0.5 -0.26,-1 -0.37,-1.46 a 41.72,41.72 0 0 0 8.91,-2.06 v 0 a 9.15,9.15 0 0 0 9,0.77 l 0.18,-0.1 a 8.52,8.52 0 0 0 1.43,-0.5 25.38,25.38 0 0 0 4.06,-2.75 c 5.14,-3.78 11.28,-5.87 16.89,-8.889998 9.55,-5.13 17.89,-13.58 20.32,-24.17 a 57.5,57.5 0 0 0 1.09,-10.42 20.25,20.25 0 0 0 -0.62,-7.52 c -0.66,-1.92 -1.89,-3.59 -2.66,-5.47 -1.67,-4.08 -1,-8.68 -1.09,-13.09 -0.12,-8.31 -3,-16.71 -8.82,-22.66 -5.82,-5.9500003 -14.53,-9.1400003 -22.63,-7.4100003 a 43.5,43.5 0 0 0 -6.36,2.0000003 c -0.93,0.34 -1.85,0.7 -2.77,1 -3.63,1.33 -7.25,2.34 -11,1.47 -4.49,-1.05 -8.4,-4.8200003 -13,-4.2800003 a 8.92,8.92 0 0 0 -2.76,0.84 15,15 0 0 0 -4.57,2.4000003 52.45,52.45 0 0 0 -5.89,4.88 c -2.34,2.25 -4.58,4.95 -4.91,8.18 a 10.15,10.15 0 0 0 2.56,7.37 42.29,42.29 0 0 0 -18.65,59.73 q -0.12,0.69 -0.25,1.4 a 103.32,103.32 0 0 1 -2.5,10.479998 9.06,9.06 0 0 1 0.29,-1.9 c -0.67,-0.15 -1.36,-0.28 -2.07,-0.4 h -0.32 q -0.94,-0.16 -1.9,-0.28 h -0.16 c -9.61,-1.209998 -21.34,-0.14 -28,3.67 a 57.17,57.17 0 0 0 -24.29,27.67 68.52,68.52 0 0 0 -15.79,25 34.21,34.21 0 0 0 -15.76,-3.26 c -8.1,-16 -23.42,-35.94 -43.5,-14.63 -21.13,22.43 4.82,29 22.61,30.93 a 19.71,19.71 0 0 0 2.72,5.76 53.88,53.88 0 0 0 4.23,5.58 3.48,3.48 0 0 1 -1.76,0.09 c -4.09,-1.14 -3.79,40.64 14.5,52.83 a 102.56,102.56 0 0 1 -11.74,21.53 120.75,120.75 0 0 0 -15.73,31.29 c -1.89,5.81 -3.24,11.34 -2.86,14.5 v 0 a 5.6,5.6 0 0 0 0.22,1.07 v 0 a 3.51,3.51 0 0 0 0.17,0.43 v 0 a 2.61,2.61 0 0 0 0.22,0.37 v 0 a 2.07,2.07 0 0 0 0.26,0.29 v 0 a 1.83,1.83 0 0 0 0.29,0.22 v 0 a 1.84,1.84 0 0 0 0.33,0.15 v 0 a 2.15,2.15 0 0 0 0.36,0.07 h 0.06 a 2.81,2.81 0 0 0 0.4,0 h 0.08 a 3.88,3.88 0 0 0 0.44,-0.06 h 0.1 l 0.45,-0.12 h 0.15 l 0.46,-0.18 0.2,-0.08 0.5,-0.24 0.22,-0.11 0.57,-0.33 0.21,-0.12 0.71,-0.45 0.14,-0.09 0.91,-0.65 c -0.88,1.72 -1.9,3.59 -3.07,5.52 -5.78,9.44 -15.28,20.38 -29.28,23.46 -26,5.71 -92.91,91.23 -92.91,91.23 0,0 -20.63,-1.43 -12.27,64.33 8.36,65.76 9.94,101.45 9.94,101.45 l 0.37,0.23 c -7.84,8.92 -23.83,24.94 -37.73,25.13 -19.28,0.26 -30.64,12.94 -21.48,20.87 9.16,7.93 109,-4.56 109,-4.56 0,0 0.66,-26.09 -4.09,-38.08 a 23.09,23.09 0 0 0 2.24,-2.27 l -4.93,-131.89 c 0,0 62.33,-53.43 92.72,-58.61 -0.2,-0.11 -0.4,-0.21 -0.59,-0.31 a 21.39,21.39 0 0 1 5.81,-0.11 c 26.56,3.61 46.72,124.69 46.72,124.69 0,0 4.89,19.06 19.49,33.75 14.6,14.69 47,71.44 47,71.44 l 1.35,-0.15 0.18,0.31 v 0 c 0,8.6 -1.31,21.51 -8,31.58 -11,16.58 19.87,23 19.87,23 0,0 22.45,6.23 24.05,-15.99 z"/><path id="path234" fill="#444176" d="m 109.70741,582.77372 c 0,0 -23.23,30.53 -42.45,30.8 -19.22,0.27 -30.55,12.86 -21.41,20.74 9.14,7.88 108.74,-4.5 108.74,-4.5 0,0 0.94,-37.52 -7.68,-43 -8.62,-5.48 -37.2,-4.04 -37.2,-4.04 z"/><path id="path236" fill="#444176" d="m 359.15741,619.42372 c 0,0 3.56,24.18 -7.42,40.67 -10.98,16.49 19.82,22.85 19.82,22.85 0,0 22.37,6.23 24,-15.86 1.63,-22.09 1.1,-39 -1,-40.8 -2.1,-1.8 -3.85,-14.23 -3.85,-14.23 z"/><path id="path238" fill="#565387" d="m 358.17741,628.57372 c 0,0 -32.36,-56.44 -46.92,-71 -14.56,-14.56 -19.45,-33.56 -19.45,-33.56 0,0 -20.14,-120.39 -46.63,-124 -26.49,-3.61 -99.16,58.5 -99.16,58.5 l 5.18,131.08 c -15.77,18.28 -46.71,-1.16 -46.71,-1.16 0,0 -1.59,-35.56 -9.93,-100.95 -8.34,-65.39 12.21,-64 12.21,-64 0,0 66.67,-85 92.61,-90.68 14,-3.05 23.42,-13.93 29.19,-23.31 a 76.67,76.67 0 0 0 7.16,-15 l 110.83,11.85 -9.82,91.85 c 0,0 -1.36,120.4 5.4,121.89 6.76,1.49 48.74,82.76 51.4,93.79 2.66,11.03 -35.36,14.7 -35.36,14.7 z" style="fill:#5a2e58;fill-opacity:1"/><g id="g244" opacity=".1" transform="translate(-345.46259,-106.44628)"><path id="path240" d="m 652.09,518.78 a 10.92,10.92 0 0 0 -3.91,-1.39 c -26.49,-3.6 -99.16,58.5 -99.16,58.5 L 554.21,707 c -4.73,5.48 -10.83,7.57 -17,7.81 9.37,2.18 20.22,2 27.67,-6.67 L 559.65,577 c 0,0 62.14,-53.07 92.44,-58.22 z" transform="translate(-66.64,-11.98)"/><path id="path242" d="m 807.15,732.48 c -2.66,-11 -44.64,-92.3 -51.4,-93.79 -6.76,-1.49 -5.4,-121.89 -5.4,-121.89 l 9.82,-91.85 -10.63,-1.14 -9.82,91.85 c 0,0 -1.36,120.4 5.4,121.89 6.76,1.49 48.74,82.76 51.4,93.79 1.8,7.47 -15,11.54 -26.11,13.39 l 1.39,2.4 c 0,0 38.01,-3.62 35.35,-14.65 z" transform="translate(-66.64,-11.98)"/></g><path id="path246" fill="#ffbec7" d="m 412.26741,151.38372 c 0,0 -104.81,-3.53 -85.65,-17.6 11.82,-8.69 16.93,-25.68 19.12,-37.429998 a 99.61,99.61 0 0 0 1.58,-12.57 c 0,0 55.87,-5.54 42.13,15.25 -3.6,5.459998 -3.75,11.649998 -2,17.809998 4.93,17.36 24.82,34.54 24.82,34.54 z" style="fill:#ffd4da;fill-opacity:1"/><path style="fill:#87877f;fill-opacity:1" id="path248" fill="#dfe5ee" d="m 298.25741,126.14372 c 0,0 -25.36,14.18 -30.36,46.66 -5,32.48 -9.11,-1 -9.11,-1 0,0 -14.53,13.8 -19,12.56 -4.47,-1.24 -3.68,48.74 20.21,55.14 23.89,6.4 42.76,-98.31 42.76,-98.31 z"/><path id="path250" d="m 298.25741,126.14372 c 0,0 -25.36,14.18 -30.36,46.66 -5,32.48 -9.11,-1 -9.11,-1 0,0 -14.53,13.8 -19,12.56 -4.47,-1.24 -3.68,48.74 20.21,55.14 23.89,6.4 42.76,-98.31 42.76,-98.31 z" opacity=".05"/><path id="path252" fill="#ffbec7" d="m 261.89741,172.15372 c 0,0 -19.48,-62 -49.78,-29.89 -30.3,32.11 36.55,31.55 36.55,31.55 z" style="fill:#ffd4da;fill-opacity:1"/><path id="path254" d="m 389.45741,99.043722 c -3.6,5.459998 -3.75,11.649998 -2,17.809998 a 42,42 0 0 1 -41.72,-20.499998 99.61,99.61 0 0 0 1.58,-12.57 c 0,0 55.88,-5.54 42.14,15.26 z" opacity=".1"/><circle id="circle256" cx="-18.27" cy="388.743" r="41.99" fill="#ffbec7" transform="rotate(-81.78)" style="fill:#ffd4da;fill-opacity:1"/><path id="path258" d="m 346.55741,306.36372 -1.44,13.43 c -12.23,-3.27 -96.13,-25 -113.89,-11.94 a 20.47,20.47 0 0 1 -2.66,1.69 76.67,76.67 0 0 0 7.16,-15 z" opacity=".1"/><path id="path260" fill="#dfe5ee" d="m 433.96741,199.77372 c -5.59,21.77 -25.82,40.27 -40.86,51.46 a 169.62,169.62 0 0 1 -17.31,11.42 c 0,0 -15.57,9.07 -23.81,29.34 a 68.77,68.77 0 0 0 -5,24.4 c 0,0 -96.22,-26.41 -115.38,-12.34 -10.07,7.4 -8.48,-3.06 -4.7,-14.64 a 119.83,119.83 0 0 1 15.67,-31.1 c 5.29,-7.61 11.93,-18.76 13.93,-29.15 2.65,-13.8 20.64,-66.29 29,-90.29 a 57.16,57.16 0 0 1 25.62,-31.11 c 7.76,-4.39 22.28,-5.12 32.4,-2.89 0,0 -3.26,10.85 11.72,12.79 1.62,0.21 3.23,0.5 4.82,0.87 6,1.41 20.79,4.22 27.35,-0.52 l 13.61,9.13 c 0,0 42.15,36.76 32.94,72.63 z" style="fill:#271c0f;fill-opacity:1"/><path id="path262" d="m 389.68741,54.853722 c 0.95,-1.78 0.26,-4.08 -1.1,-5.58 a 14.92,14.92 0 0 0 -5.09,-3.21 l -9.13,-4.14 a 31.78,31.78 0 0 1 -8.49,-5 c -2.44,-2.22 -4.2,-5.43 -3.87,-8.7 0.33,-3.27 2.56,-5.9 4.9,-8.13 a 52.22,52.22 0 0 1 5.87,-4.85 12.77,12.77 0 0 1 5.71,-2.62 c 4.57,-0.54 8.47,3.21 12.95,4.26 6.75,1.58 13.24,-3.09 20,-4.53 8.08,-1.72 16.81,1.46 22.57,7.37 5.76,5.91 8.68,14.27 8.8,22.53 0.07,4.39 -0.57,9 1.09,13 0.76,1.87 2,3.53 2.65,5.44 a 20.08,20.08 0 0 1 0.62,7.48 57,57 0 0 1 -1.05,10.4 c -2.42,10.53 -10.74,18.92 -20.26,23.999998 -5.6,3 -11.72,5.08 -16.84,8.83 a 25.28,25.28 0 0 1 -4,2.73 9.15,9.15 0 0 1 -8.94,-0.77 6.52,6.52 0 0 1 -3,-5.4 c 0.1,-2.14 1.54,-3.95 2.65,-5.78 2.9,-4.769998 3.58,-11.529998 -0.28,-15.579998 -1.69,-1.77 -4,-2.81 -5.67,-4.62 -2.68,-3 -3,-7.32 -3.09,-11.32 -0.26,-7.47 -0.45,-15.25 2.67,-22" opacity=".1"/><path id="path264" fill="#88455e" d="m 390.19741,48.673722 a 14.92,14.92 0 0 0 -5.09,-3.21 l -9.13,-4.14 a 31.78,31.78 0 0 1 -8.49,-5 c -2.44,-2.22 -4.2,-5.43 -3.87,-8.7 0.33,-3.27 2.56,-5.9 4.9,-8.13 a 52.22,52.22 0 0 1 5.87,-4.85 12.77,12.77 0 0 1 5.71,-2.62 c 4.57,-0.54 8.47,3.21 12.95,4.26 6.75,1.58 13.24,-3.09 20,-4.53 8.08,-1.72 16.81,1.46 22.57,7.37 5.76,5.91 8.68,14.27 8.8,22.53 0.07,4.39 -0.57,9 1.09,13 0.76,1.87 2,3.53 2.65,5.44 a 20.08,20.08 0 0 1 0.62,7.48 57,57 0 0 1 -1.08,10.36 c -2.42,10.53 -10.74,18.92 -20.26,23.999998 -5.6,3 -11.72,5.08 -16.84,8.83 a 25.28,25.28 0 0 1 -4,2.73 9.15,9.15 0 0 1 -8.94,-0.77 6.52,6.52 0 0 1 -3,-5.4 c 0.1,-2.14 1.54,-3.95 2.65,-5.78 2.9,-4.769998 3.58,-11.529998 -0.28,-15.579998 -1.69,-1.77 -4,-2.81 -5.67,-4.62 -2.68,-3 -3,-7.32 -3.09,-11.32 -0.26,-7.47 -1.53,-14.51 1.59,-21.3" style="fill:#5c5046;fill-opacity:1"/><path id="path266" d="m 418.89741,219.43372 c -6.15,7.11 -15,17.71 -25.76,31.8 a 169.62,169.62 0 0 1 -17.31,11.42 c 0,0 -15.57,9.07 -23.81,29.34 -32.77,1.72 -72.38,-63.42 -72.38,-63.42 l 25.94,-27.17 44.22,31.6 14.4,-30.85 a 52,52 0 0 1 42.07,-29.78 l 0.69,-0.06 c 9.21,-0.84 14.53,4.66 17.59,11.62 a 33.72,33.72 0 0 1 -5.65,35.5 z" opacity=".1"/><g id="g274" opacity=".05" transform="translate(-345.46259,-106.44628)" style="fill:teal"><path id="path268" d="m 748.8,222.57 c 0,0 -3.26,10.85 11.72,12.79 1.62,0.21 3.23,0.5 4.82,0.87 a 80.55,80.55 0 0 0 13.58,2.05 c -2.69,-0.42 -5.07,-0.92 -6.75,-1.32 -1.68,-0.4 -3.2,-0.66 -4.82,-0.87 -15,-1.94 -11.72,-12.79 -11.72,-12.79 a 54.79,54.79 0 0 0 -8.95,-1.14 c 0.73,0.13 1.44,0.26 2.12,0.41 z" transform="translate(-66.64,-11.98)" style="fill:teal"/><path id="path270" d="m 813.14,245.58 -13.61,-9.13 a 11.74,11.74 0 0 1 -3.34,1.61 l 10.12,6.79 c 0,0 42.14,36.75 32.93,72.62 -5.59,21.77 -25.82,40.27 -40.86,51.46 a 169.62,169.62 0 0 1 -17.31,11.42 c 0,0 -15.57,9.07 -23.81,29.34 A 68.6,68.6 0 0 0 752.34,433 c 4.27,1.09 6.78,1.78 6.78,1.78 a 68.77,68.77 0 0 1 5,-24.4 c 8.24,-20.27 23.81,-29.34 23.81,-29.34 a 169.62,169.62 0 0 0 17.31,-11.42 c 15,-11.18 35.27,-29.69 40.86,-51.46 9.18,-35.83 -32.96,-72.58 -32.96,-72.58 z" transform="translate(-66.64,-11.98)" style="fill:teal"/><path id="path272" d="m 636.91,421.75 -0.72,0.5 c 0.38,3.16 2.5,3.94 7.55,0.23 6,-4.38 19.39,-4.84 35,-3.39 -18.46,-2.23 -35.02,-2.34 -41.83,2.66 z" transform="translate(-66.64,-11.98)" style="fill:teal"/></g><path id="path276" d="m 251.72741,242.92372 c 0,0 7.73,20 18.46,27.25 10.73,7.25 24.78,19.54 24.78,19.54" opacity=".05"/><rect id="rect286" width="8.15" height="31.77" x="-210.754" y="242.371" opacity=".1" transform="rotate(-90)"/><rect id="rect288" width="8.96" height="18.74" x="-197.714" y="249.7" opacity=".1" transform="rotate(-90)"/><path id="path310" fill="none" stroke="#000" stroke-miterlimit="10" d="m 300.40741,458.99372 c 0,0 0,37.47 10.59,37.47 10.59,0 34.22,4.11 34.22,4.11" opacity=".1"/><polygon id="polygon332" points="651.24 303.8 656.86 310.77 646.65 327.34 636.87 318.84" opacity=".1" transform="translate(-345.46259,-106.44628)"/><path id="path334" fill="#dfe5ee" d="m 367.55741,199.44372 -14.4,30.84 -44.26,-31.6 -25.9,27.17 c 0,0 59.42,97.72 92.9,50.62 20.31,-28.61 36.67,-48.53 46.38,-59.76 a 33.7,33.7 0 0 0 5.67,-35.5 c -3.06,-7 -8.38,-12.45 -17.59,-11.62 l -0.69,0.07 a 52,52 0 0 0 -42.11,29.78 z" style="fill:#87877f;fill-opacity:1"/><g style="stroke-width:1.90948" id="g1385" transform="matrix(1.9412905,0,0,2.0181538,197.28706,141.54194)"><path id="rect833" d="m 31.088931,280.62257 -6.751685,11.48265 -6.751687,-11.48265 V 62.630707 h 13.503372 z" style="fill:#f0f5fa;fill-opacity:1;stroke:#000;stroke-width:3.53651;stroke-miterlimit:4;stroke-dasharray:none;stroke-opacity:1"/><path style="fill:none;stroke:#000;stroke-width:3.53651;stroke-linecap:butt;stroke-linejoin:miter;stroke-miterlimit:4;stroke-dasharray:none;stroke-opacity:1" id="path848" d="m 23.847658,292.10522 c 0,-184.89567 0.518434,-229.108273 0.518434,-229.108273"/><rect style="fill:#449bc3;fill-opacity:1;stroke:#000;stroke-width:3.53651;stroke-linejoin:miter;stroke-miterlimit:4;stroke-dasharray:none;stroke-opacity:1" id="rect855" width="20.678" height="6.441" x="-35.265" y="-54.626" ry="3.221" transform="scale(-1)"/><path id="rect850" d="M 46.403125,69.640679 24.337245,63.987217 2.2713657,69.640679 v -4.62556 -4.625567 l 22.0658793,-5.653462 22.06588,5.653462 v 4.625567 z" style="fill:#e0b45a;fill-opacity:1;stroke:#000;stroke-width:3.53651;stroke-linejoin:miter;stroke-miterlimit:4;stroke-dasharray:none;stroke-opacity:1"/><rect id="rect860" width="20.678" height="6.441" x="-35.265" y="-49.313" ry="3.221" transform="scale(-1)" style="fill:#449bc3;fill-opacity:1;stroke:#000;stroke-width:3.53651;stroke-linejoin:miter;stroke-miterlimit:4;stroke-dasharray:none;stroke-opacity:1"/><rect style="fill:#449bc3;fill-opacity:1;stroke:#000;stroke-width:3.53651;stroke-linejoin:miter;stroke-miterlimit:4;stroke-dasharray:none;stroke-opacity:1" id="rect862" width="20.678" height="6.441" x="-35.265" y="-28.063" ry="3.221" transform="scale(-1)"/><rect id="rect864" width="20.678" height="6.441" x="-35.265" y="-33.376" ry="3.221" transform="scale(-1)" style="fill:#449bc3;fill-opacity:1;stroke:#000;stroke-width:3.53651;stroke-linejoin:miter;stroke-miterlimit:4;stroke-dasharray:none;stroke-opacity:1"/><rect style="fill:#449bc3;fill-opacity:1;stroke:#000;stroke-width:3.53651;stroke-linejoin:miter;stroke-miterlimit:4;stroke-dasharray:none;stroke-opacity:1" id="rect866" width="20.678" height="6.441" x="-35.265" y="-38.688" ry="3.221" transform="scale(-1)"/><rect id="rect868" width="20.678" height="6.441" x="-35.265" y="-44.001" ry="3.221" transform="scale(-1)" style="fill:#449bc3;fill-opacity:1;stroke:#000;stroke-width:3.53651;stroke-linejoin:miter;stroke-miterlimit:4;stroke-dasharray:none;stroke-opacity:1"/><ellipse style="fill:#333;fill-opacity:1;stroke:#000;stroke-width:3.53651;stroke-linejoin:miter;stroke-miterlimit:4;stroke-dasharray:none;stroke-opacity:1" id="path870" cx="-24.922" cy="-11.964" rx="9.182" ry="9.348" transform="scale(-1)"/><ellipse id="circle872" cx="-24.922" cy="-11.964" rx="4.91" ry="4.999" transform="scale(-1)" style="fill:#fff;fill-opacity:1;stroke:#000;stroke-width:3.53651;stroke-linejoin:miter;stroke-miterlimit:4;stroke-dasharray:none;stroke-opacity:1"/></g><path id="path330" fill="#ffbec7" d="m 311.39741,204.32372 -10.22,16.57 -9.78,-8.49 -13.4,-11.64 c 0,0 -24.78,2 -40.64,-22 -6.8,-10.27 -1.51,-16.15 6.74,-19.5 a 34.24,34.24 0 0 1 39.41,10.5 z" style="fill:#ffd3d9;fill-opacity:1"/><g id="g3838" transform="translate(-61.715257,-85.173573)"><path id="path234-6" fill="#444176" d="m 163.70741,703.89685 c 0,0 -23.23,43.55513 -42.45,43.94032 -19.22,0.38519 -30.55,18.34651 -21.41,29.58838 9.14,11.24188 108.74,-6.41985 108.74,-6.41985 0,0 0.94,-53.52729 -7.68,-61.34525 -8.62,-7.81795 -37.2,-5.7636 -37.2,-5.7636 z" style="opacity:.21865;stroke-width:1.194;stroke-miterlimit:10;stroke-dasharray:none"/><path id="path236-9" fill="#444176" d="m 413.15741,756.18298 c 0,0 3.56,34.496 -7.42,58.02119 -10.98,23.52519 19.82,32.59858 19.82,32.59858 0,0 22.37,8.88793 24,-22.62641 1.63,-31.51434 1.1,-55.63871 -1,-58.20665 -2.1,-2.56794 -3.85,-20.301 -3.85,-20.301 z" style="opacity:.21865;stroke-width:1.194;stroke-miterlimit:10;stroke-dasharray:none"/><path id="path292" fill="#a8a8a8" d="m 61.95741,821.33734 c 0,0 -0.81,-111.56275 76.57,-156.92971 l 17.92,-48.80513 18.74,-65.08303 39.92,-12.83971 11.4,-68.56401 c 0,0 44,-22.08429 72.5,-13.95248 l 5.7,13.95248 c 0,0 73.32,-1.15558 76.57,55.78138 0,0 7.33,52.30039 17.92,61.60204 0,0 17.92,-5.8064 35.84,31.38594 l 19.55,95.29913 c 0,0 51.32,68.56401 35.84,131.32163 0,0 -21.18,42.99874 -128.71,13.95248 0,0 -114.86,49.93218 -176,-18.54624 0.07,0.0143 -101.76,27.90496 -123.76,-18.57477 z" style="fill:#828282;fill-opacity:1;stroke-width:1.194;stroke-miterlimit:10;stroke-dasharray:none"/><path id="path294" fill="none" stroke="#000" stroke-miterlimit="10" d="m 113.27741,803.90388 c 0,0 16.29,-32.54152 15.48,-55.78138 -0.81,-23.23986 3.84,-79.96282 3.84,-79.96282" opacity=".1" style="opacity:.21865;stroke-width:1.194;stroke-miterlimit:10;stroke-dasharray:none"/><path id="path296" fill="none" stroke="#000" stroke-miterlimit="10" d="m 172.74741,716.73656 c 0,0 16.29,-42.99874 14.66,-66.2386 0,0 17.11,-44.22565 30.14,-40.67333" opacity=".1" style="opacity:.21865;stroke-width:1.194;stroke-miterlimit:10;stroke-dasharray:none"/><path id="path298" fill="none" stroke="#000" stroke-miterlimit="10" d="m 262.35741,594.71658 c 0,0 44.8,-23.23986 47.25,-41.84317" opacity=".1" style="opacity:.21865;stroke-width:1.194;stroke-miterlimit:10;stroke-dasharray:none"/><path id="path300" fill="none" stroke="#000" stroke-miterlimit="10" d="m 278.64741,648.17254 c 0,0 47.25,-30.15903 47.25,-38.34791 h 23.62 c 0,0 34.21,63.91319 30.14,91.81814" opacity=".1" style="opacity:.21865;stroke-width:1.194;stroke-miterlimit:10;stroke-dasharray:none"/><path id="path302" fill="none" stroke="#000" stroke-miterlimit="10" d="m 334.04741,694.65227 c 0,0 -45.62,-4.65083 -61.91,13.95248 -16.29,18.6033 -45.62,27.89068 -45.62,27.89068 0,0 -17.11,52.3004 -23.62,61.60205 -6.51,9.30165 -17.11,41.84316 -17.11,41.84316" opacity=".1" style="opacity:.21865;stroke-width:1.194;stroke-miterlimit:10;stroke-dasharray:none"/><path id="path304" fill="none" stroke="#000" stroke-miterlimit="10" d="m 334.04741,756.25431 c 0,0 4.85,24.39544 11.4,38.34791 6.55,13.95248 16.29,63.91319 16.29,63.91319" opacity=".1" style="opacity:.21865;stroke-width:1.194;stroke-miterlimit:10;stroke-dasharray:none"/><path id="path306" fill="none" stroke="#000" stroke-miterlimit="10" d="m 410.61741,827.14374 c 0,0 10.34,41.04425 19.43,41.37238" opacity=".1" style="opacity:.21865;stroke-width:1.194;stroke-miterlimit:10;stroke-dasharray:none"/><path id="path308" fill="none" stroke="#000" stroke-miterlimit="10" d="m 342.89741,650.96874 c 0,0 26.86,10.35736 38.09,35.45185 11.23,25.09449 45.57,47.86356 45.57,47.86356" opacity=".1" style="opacity:.21865;stroke-width:1.194;stroke-miterlimit:10;stroke-dasharray:none"/><path id="path310-0" fill="none" stroke="#000" stroke-miterlimit="10" d="m 354.40741,527.30814 c 0,0 0,53.45596 10.59,53.45596 10.59,0 34.22,5.86346 34.22,5.86346" opacity=".1" style="opacity:.21865;stroke-width:1.194;stroke-miterlimit:10;stroke-dasharray:none"/><path id="path312" fill="none" stroke="#000" stroke-miterlimit="10" d="m 302.53741,463.86574 c 0,0 -2.71,92.34599 -16.55,116.24211" opacity=".1" style="opacity:.21865;stroke-width:1.194;stroke-miterlimit:10;stroke-dasharray:none"/><g style="opacity:.0900322;stroke-width:.99965;stroke-miterlimit:10;stroke-dasharray:none" id="g320" opacity=".05" transform="matrix(1,0,0,1.4266337,-291.46259,-279.36762)"><path style="stroke-width:.99965;stroke-miterlimit:10;stroke-dasharray:none" id="path314" d="m 811.08,706.94 -19.55,-66.8 c -17.92,-26.07 -35.84,-22 -35.84,-22 C 745.1,611.63 737.77,575 737.77,575 734.51,535.08 661.2,535.9 661.2,535.9 l -5.7,-9.78 c -7.22,-1.44 -15.43,-1.53 -23.66,-0.85 2,0.2 3.89,0.48 5.74,0.85 l 5.7,9.78 c 0,0 73.32,-0.81 76.57,39.1 0,0 7.33,36.66 17.92,43.18 0,0 17.92,-4.07 35.84,22 l 19.55,66.8 c 0,0 51.32,48.02 35.84,92.02 0,0 -10.45,14.87 -53.93,16.66 58.61,2.15 71.85,-16.66 71.85,-16.66 15.48,-44 -35.84,-92.06 -35.84,-92.06 z" transform="translate(-66.64,-11.98)"/><path style="stroke-width:.99965;stroke-miterlimit:10;stroke-dasharray:none" id="path316" d="m 524.33,795.74 a 380.76,380.76 0 0 1 -52.19,5.65 c 20.4,0.78 41.63,-1.42 55.31,-3.31 q -1.57,-1.14 -3.12,-2.34 z" transform="translate(-66.64,-11.98)"/><path style="stroke-width:.99965;stroke-miterlimit:10;stroke-dasharray:none" id="path318" d="m 700.29,808.77 a 334.73,334.73 0 0 1 -76.93,12.16 c 37.55,1.36 73.12,-6.46 87.79,-10.22 -3.52,-0.59 -7.15,-1.23 -10.86,-1.94 z" transform="translate(-66.64,-11.98)"/></g></g></g></svg>