<svg xmlns="http://www.w3.org/2000/svg" xmlns:osb="http://www.openswatchbook.org/uri/2009/osb" xmlns:svg="http://www.w3.org/2000/svg" id="svg8" width="1133.858" height="1133.858" version="1.1" viewBox="0 0 300 300"><defs id="defs2"><rect id="rect1115" width="129.848" height="23.544" x="22.117" y="157.672"/><linearGradient id="linearGradient843" osb:paint="solid"><stop id="stop841" offset="0" style="stop-color:#000;stop-opacity:1"/></linearGradient><linearGradient id="linearGradient837" osb:paint="solid"><stop id="stop835" offset="0" style="stop-color:#000;stop-opacity:1"/></linearGradient></defs><metadata id="metadata5"/><g id="layer1"><g id="g885"><g id="g912"><g style="stroke-width:.679379" id="g4676" transform="matrix(1.4706355,0,0,1.4084525,-3.554216,-49.432758)"><path style="fill:#eed090;fill-opacity:1;stroke:#000;stroke-width:.817694;stroke-linejoin:miter;stroke-miterlimit:4;stroke-dasharray:none;stroke-opacity:1" id="path1040" d="m 205.83009,132.22428 h -58.40671 v 35.19514 h 58.40671 l -8.98566,-17.59757 z"/><path id="rect1037" d="M 4.0738851,115.83754 H 62.480589 v 35.19514 H 4.0738851 l 8.9856509,-17.59757 z" style="fill:#eed090;fill-opacity:1;stroke:#000;stroke-width:.817694;stroke-linejoin:miter;stroke-miterlimit:4;stroke-dasharray:none;stroke-opacity:1"/><path id="rect833" d="m 155.12444,235.27502 -0.153,11.1794 -9.75778,-5.45718 -91.170713,-157.918343 9.910786,-5.722211 z" style="fill:#f0f5fa;fill-opacity:1;stroke:#000;stroke-width:.817674;stroke-miterlimit:4;stroke-dasharray:none;stroke-opacity:1"/><path style="fill:none;stroke:#000;stroke-width:.817674;stroke-linecap:butt;stroke-linejoin:miter;stroke-miterlimit:4;stroke-dasharray:none;stroke-opacity:1" id="path848" d="M 154.61211,246.66189 C 77.283211,112.7192 59.172684,80.470882 59.172684,80.470882"/><rect style="fill:#449bc3;fill-opacity:1;stroke:#000;stroke-width:.817674;stroke-linejoin:miter;stroke-miterlimit:4;stroke-dasharray:none;stroke-opacity:1" id="rect855" width="17.525" height="5.388" x="-20.248" y="-92.274" ry="2.694" transform="matrix(-0.86601715,0.5000143,-0.4999857,-0.86603366,0,0)"/><path id="rect850" d="M 78.125348,75.945301 59.565673,81.200479 45.734891,94.646658 43.800343,91.29579 41.865793,87.944923 55.696575,74.49875 74.25625,69.243572 l 1.934551,3.350867 z" style="fill:#e0b45a;fill-opacity:1;stroke:#000;stroke-width:.817674;stroke-linejoin:miter;stroke-miterlimit:4;stroke-dasharray:none;stroke-opacity:1"/><rect id="rect860" width="17.525" height="5.388" x="-20.248" y="-87.83" ry="2.694" transform="matrix(-0.86601715,0.5000143,-0.4999857,-0.86603366,0,0)" style="fill:#449bc3;fill-opacity:1;stroke:#000;stroke-width:.817674;stroke-linejoin:miter;stroke-miterlimit:4;stroke-dasharray:none;stroke-opacity:1"/><rect style="fill:#449bc3;fill-opacity:1;stroke:#000;stroke-width:.817674;stroke-linejoin:miter;stroke-miterlimit:4;stroke-dasharray:none;stroke-opacity:1" id="rect862" width="17.525" height="5.388" x="-20.248" y="-70.055" ry="2.694" transform="matrix(-0.86601715,0.5000143,-0.4999857,-0.86603366,0,0)"/><rect id="rect864" width="17.525" height="5.388" x="-20.248" y="-74.499" ry="2.694" transform="matrix(-0.86601715,0.5000143,-0.4999857,-0.86603366,0,0)" style="fill:#449bc3;fill-opacity:1;stroke:#000;stroke-width:.817674;stroke-linejoin:miter;stroke-miterlimit:4;stroke-dasharray:none;stroke-opacity:1"/><rect style="fill:#449bc3;fill-opacity:1;stroke:#000;stroke-width:.817674;stroke-linejoin:miter;stroke-miterlimit:4;stroke-dasharray:none;stroke-opacity:1" id="rect866" width="17.525" height="5.388" x="-20.248" y="-78.942" ry="2.694" transform="matrix(-0.86601715,0.5000143,-0.4999857,-0.86603366,0,0)"/><rect id="rect868" width="17.525" height="5.388" x="-20.248" y="-83.386" ry="2.694" transform="matrix(-0.86601715,0.5000143,-0.4999857,-0.86603366,0,0)" style="fill:#449bc3;fill-opacity:1;stroke:#000;stroke-width:.817674;stroke-linejoin:miter;stroke-miterlimit:4;stroke-dasharray:none;stroke-opacity:1"/><path style="fill:#333;fill-opacity:1;stroke:#000;stroke-width:3.09042;stroke-linejoin:miter;stroke-miterlimit:4;stroke-dasharray:none;stroke-opacity:1" id="path870" d="m 144.54297,134.00586 a 29.553457,29.410352 60.194904 0 0 -14.80274,3.92383 29.553457,29.410352 60.194904 0 0 -10.69335,40.29883 29.553457,29.410352 60.194904 0 0 40.24609,10.88867 29.553457,29.410352 60.194904 0 0 10.69336,-40.29883 29.553457,29.410352 60.194904 0 0 -25.44336,-14.8125 z m -0.30078,13.73437 a 15.802909,15.726389 60.194906 0 1 13.89453,7.91993 15.802909,15.726389 60.194906 0 1 -5.71875,21.54882 15.802909,15.726389 60.194906 0 1 -21.51953,-5.82226 15.802909,15.726389 60.194906 0 1 5.71679,-21.54883 15.802909,15.726389 60.194906 0 1 7.62696,-2.09766 z" transform="scale(0.26458333)"/><path style="fill:#f0f5fa;fill-opacity:1;stroke:#000;stroke-width:.817674;stroke-miterlimit:4;stroke-dasharray:none;stroke-opacity:1" id="path956" d="m 54.779533,235.76164 0.153004,11.17941 9.757782,-5.45719 91.170711,-157.918335 -9.91079,-5.722211 z"/><path id="path958" d="M 55.291871,247.14852 C 132.62077,113.20583 150.7313,80.957509 150.7313,80.957509" style="fill:none;stroke:#000;stroke-width:.817674;stroke-linecap:butt;stroke-linejoin:miter;stroke-miterlimit:4;stroke-dasharray:none;stroke-opacity:1"/><rect id="rect960" width="17.525" height="5.388" x="161.78" y="12.26" ry="2.694" transform="matrix(0.86601715,0.5000143,0.4999857,-0.86603366,0,0)" style="fill:#449bc3;fill-opacity:1;stroke:#000;stroke-width:.817674;stroke-linejoin:miter;stroke-miterlimit:4;stroke-dasharray:none;stroke-opacity:1"/><path style="fill:#e0b45a;fill-opacity:1;stroke:#000;stroke-width:.817674;stroke-linejoin:miter;stroke-miterlimit:4;stroke-dasharray:none;stroke-opacity:1" id="path962" d="m 131.77863,76.431929 18.55968,5.255178 13.83078,13.446179 1.93454,-3.350868 1.93456,-3.350868 -13.83079,-13.446172 -18.55967,-5.255179 -1.93455,3.350868 z"/><rect style="fill:#449bc3;fill-opacity:1;stroke:#000;stroke-width:.817674;stroke-linejoin:miter;stroke-miterlimit:4;stroke-dasharray:none;stroke-opacity:1" id="rect964" width="17.525" height="5.388" x="161.78" y="16.704" ry="2.694" transform="matrix(0.86601715,0.5000143,0.4999857,-0.86603366,0,0)"/><rect id="rect966" width="17.525" height="5.388" x="161.78" y="34.479" ry="2.694" transform="matrix(0.86601715,0.5000143,0.4999857,-0.86603366,0,0)" style="fill:#449bc3;fill-opacity:1;stroke:#000;stroke-width:.817674;stroke-linejoin:miter;stroke-miterlimit:4;stroke-dasharray:none;stroke-opacity:1"/><rect style="fill:#449bc3;fill-opacity:1;stroke:#000;stroke-width:.817674;stroke-linejoin:miter;stroke-miterlimit:4;stroke-dasharray:none;stroke-opacity:1" id="rect968" width="17.525" height="5.388" x="161.78" y="30.035" ry="2.694" transform="matrix(0.86601715,0.5000143,0.4999857,-0.86603366,0,0)"/><rect id="rect970" width="17.525" height="5.388" x="161.78" y="25.591" ry="2.694" transform="matrix(0.86601715,0.5000143,0.4999857,-0.86603366,0,0)" style="fill:#449bc3;fill-opacity:1;stroke:#000;stroke-width:.817674;stroke-linejoin:miter;stroke-miterlimit:4;stroke-dasharray:none;stroke-opacity:1"/><rect style="fill:#449bc3;fill-opacity:1;stroke:#000;stroke-width:.817674;stroke-linejoin:miter;stroke-miterlimit:4;stroke-dasharray:none;stroke-opacity:1" id="rect972" width="17.525" height="5.388" x="161.78" y="21.147" ry="2.694" transform="matrix(0.86601715,0.5000143,0.4999857,-0.86603366,0,0)"/><path style="fill:#333;fill-opacity:1;stroke:#000;stroke-width:3.09042;stroke-linejoin:miter;stroke-miterlimit:4;stroke-dasharray:none;stroke-opacity:1" id="ellipse974" d="m 648.79492,135.8457 a 29.410352,29.553457 29.805096 0 0 -25.44336,14.8125 29.410352,29.553457 29.805096 0 0 10.69336,40.29883 29.410352,29.553457 29.805096 0 0 40.2461,-10.88867 29.410352,29.553457 29.805096 0 0 -10.69336,-40.30078 29.410352,29.553457 29.805096 0 0 -14.80274,-3.92188 z m -0.0332,13.73438 a 15.726389,15.802909 29.805094 0 1 7.96094,2.09765 15.726389,15.802909 29.805094 0 1 5.71679,21.54883 15.726389,15.802909 29.805094 0 1 -21.51953,5.82227 15.726389,15.802909 29.805094 0 1 -5.71875,-21.54883 15.726389,15.802909 29.805094 0 1 13.56055,-7.91992 z" transform="scale(0.26458333)"/><path style="fill:#22ae9e;fill-opacity:1;stroke:#000;stroke-width:.914213;stroke-linejoin:miter;stroke-miterlimit:4;stroke-dasharray:none;stroke-opacity:1" id="path988" d="m 86.529688,91.510445 67.041172,38.706245 0,77.41248 -67.041176,38.70624 -67.041176,-38.70624 2e-6,-77.41249 z" transform="matrix(0.89438685,0,0,0.89442096,27.560973,-9.459729)"/><path id="path990" d="m 86.529689,49.798271 103.164981,59.562329 -1e-5,119.12466 -103.164977,59.56232 -103.164978,-59.56233 4e-6,-119.12465 z" transform="matrix(0.48181826,0,0,0.481965,63.260404,60.213541)" style="fill:#2b3e51;fill-opacity:1;stroke:#000;stroke-width:1.69684;stroke-linejoin:miter;stroke-miterlimit:4;stroke-dasharray:none;stroke-opacity:1"/><path style="fill:#fff;stroke:#fff;stroke-width:.817694;stroke-linecap:butt;stroke-linejoin:miter;stroke-miterlimit:4;stroke-dasharray:none;stroke-opacity:1" id="path992" d="M 105.39782,84.090899 V 198.91873"/><path id="rect1035" d="M 33.066803,124.03091 H 176.83717 v 35.19514 H 33.066803 Z" style="fill:#eed090;fill-opacity:1;stroke:#000;stroke-width:.817694;stroke-linejoin:miter;stroke-miterlimit:4;stroke-dasharray:none;stroke-opacity:1"/><text id="text1113" transform="matrix(0.89438685,0,0,0.89442096,32.734541,-8.0552392)" xml:space="preserve" style="font-style:normal;font-variant:normal;font-weight:700;font-stretch:normal;font-size:17.63889999999999958px;line-height:1.25;font-family:sans-serif;-inkscape-font-specification:'sans-serif Bold';white-space:pre;shape-inside:url(#rect1115);fill:#000;fill-opacity:1;stroke:none;stroke-width:.759587"><tspan x="22.117" y="173.764"><tspan style="shape-inside:url(#rect1115);opacity:1;stroke-width:.759587">DevNodachi</tspan></tspan></text></g></g></g></g></svg>