<svg xmlns="http://www.w3.org/2000/svg" xmlns:svg="http://www.w3.org/2000/svg" xmlns:xlink="http://www.w3.org/1999/xlink" id="30b67e24-71e0-4c14-b173-6690a8f5300f" width="566.61" height="876.03" data-name="Layer 1" version="1.1" viewBox="0 0 566.61 876.03"><metadata id="metadata373"/><defs id="defs226"><linearGradient id="80eb2e63-b174-4995-98de-a6f06d09e993" x1="660.62" x2="660.62" y1="785.23" y2="108.23" gradientTransform="translate(51.69 -65.88) rotate(6.1)" gradientUnits="userSpaceOnUse"><stop id="stop218" offset="0" stop-color="gray" stop-opacity=".25"/><stop id="stop220" offset=".54" stop-color="gray" stop-opacity=".12"/><stop id="stop222" offset="1" stop-color="gray" stop-opacity=".1"/></linearGradient><linearGradient id="897a3ab3-8922-4256-a8e6-4a2ee8dcb308" x1="636.28" x2="636.28" y1="829.65" y2="226.73" gradientTransform="matrix(0.97, 0.05, -0.05, 1, 52.93, -28.22)" xlink:href="#80eb2e63-b174-4995-98de-a6f06d09e993"/><rect id="rect58" width="91.664" height="58.233" x="306.265" y="133.721"/><rect id="rect103" width="91.664" height="58.233" x="306.265" y="133.721"/></defs><title id="title228">be_the_hero</title><g style="stroke-width:1.58378" id="g917" transform="matrix(2.3569248,0,0,2.416249,33.746641,28.648974)"><path id="rect833" d="m 110.23427,281.51825 -6.75169,11.48265 -6.751687,-11.48265 V 63.526389 h 13.503377 z" style="fill:#f0f5fa;fill-opacity:1;stroke:#000;stroke-width:2.93328;stroke-miterlimit:4;stroke-dasharray:none;stroke-opacity:1"/><path style="fill:none;stroke:#000;stroke-width:2.93328;stroke-linecap:butt;stroke-linejoin:miter;stroke-miterlimit:4;stroke-dasharray:none;stroke-opacity:1" id="path848" d="m 102.99299,293.0009 c 0,-184.89567 0.51844,-229.108271 0.51844,-229.108271"/><rect style="fill:#449bc3;fill-opacity:1;stroke:#000;stroke-width:2.93328;stroke-linejoin:miter;stroke-miterlimit:4;stroke-dasharray:none;stroke-opacity:1" id="rect855" width="20.678" height="6.441" x="-114.41" y="-55.521" ry="3.221" transform="scale(-1)"/><path id="rect850" d="M 125.54846,70.536361 103.48258,64.882899 81.4167,70.536361 v -4.62556 -4.625567 l 22.06588,-5.653462 22.06588,5.653462 v 4.625567 z" style="fill:#e0b45a;fill-opacity:1;stroke:#000;stroke-width:2.93328;stroke-linejoin:miter;stroke-miterlimit:4;stroke-dasharray:none;stroke-opacity:1"/><rect id="rect860" width="20.678" height="6.441" x="-114.41" y="-50.209" ry="3.221" transform="scale(-1)" style="fill:#449bc3;fill-opacity:1;stroke:#000;stroke-width:2.93328;stroke-linejoin:miter;stroke-miterlimit:4;stroke-dasharray:none;stroke-opacity:1"/><rect style="fill:#449bc3;fill-opacity:1;stroke:#000;stroke-width:2.93328;stroke-linejoin:miter;stroke-miterlimit:4;stroke-dasharray:none;stroke-opacity:1" id="rect862" width="20.678" height="6.441" x="-114.41" y="-28.959" ry="3.221" transform="scale(-1)"/><rect id="rect864" width="20.678" height="6.441" x="-114.41" y="-34.271" ry="3.221" transform="scale(-1)" style="fill:#449bc3;fill-opacity:1;stroke:#000;stroke-width:2.93328;stroke-linejoin:miter;stroke-miterlimit:4;stroke-dasharray:none;stroke-opacity:1"/><rect style="fill:#449bc3;fill-opacity:1;stroke:#000;stroke-width:2.93328;stroke-linejoin:miter;stroke-miterlimit:4;stroke-dasharray:none;stroke-opacity:1" id="rect866" width="20.678" height="6.441" x="-114.41" y="-39.584" ry="3.221" transform="scale(-1)"/><rect id="rect868" width="20.678" height="6.441" x="-114.41" y="-44.896" ry="3.221" transform="scale(-1)" style="fill:#449bc3;fill-opacity:1;stroke:#000;stroke-width:2.93328;stroke-linejoin:miter;stroke-miterlimit:4;stroke-dasharray:none;stroke-opacity:1"/><path style="fill:#333;fill-opacity:1;stroke:#000;stroke-width:11.0864;stroke-linejoin:miter;stroke-miterlimit:4;stroke-dasharray:none;stroke-opacity:1" id="path870" d="m 393.32422,13.271484 a 34.702509,35.330579 0 0 0 -34.70313,35.330078 34.702509,35.330579 0 0 0 34.70313,35.330079 34.702509,35.330579 0 0 0 34.70312,-35.330079 34.702509,35.330579 0 0 0 -34.70312,-35.330078 z m 0,16.4375 a 18.556227,18.892069 0 0 1 18.55664,18.892578 18.556227,18.892069 0 0 1 -18.55664,18.892579 18.556227,18.892069 0 0 1 -18.55664,-18.892579 18.556227,18.892069 0 0 1 18.55664,-18.892578 z" transform="scale(0.26458333)"/></g><path id="path234" fill="#444176" d="m 163.70741,703.89685 c 0,0 -23.23,43.55513 -42.45,43.94032 -19.22,0.38519 -30.55,18.34651 -21.41,29.58838 9.14,11.24188 108.74,-6.41985 108.74,-6.41985 0,0 0.94,-53.52729 -7.68,-61.34525 -8.62,-7.81795 -37.2,-5.7636 -37.2,-5.7636 z" style="opacity:.21865;stroke-width:1.194;stroke-miterlimit:10;stroke-dasharray:none"/><path id="path236" fill="#444176" d="m 413.15741,756.18298 c 0,0 3.56,34.496 -7.42,58.02119 -10.98,23.52519 19.82,32.59858 19.82,32.59858 0,0 22.37,8.88793 24,-22.62641 1.63,-31.51434 1.1,-55.63871 -1,-58.20665 -2.1,-2.56794 -3.85,-20.301 -3.85,-20.301 z" style="opacity:.21865;stroke-width:1.194;stroke-miterlimit:10;stroke-dasharray:none"/><path id="path292" fill="#a8a8a8" d="m 61.95741,821.33734 c 0,0 -0.81,-111.56275 76.57,-156.92971 l 17.92,-48.80513 18.74,-65.08303 39.92,-12.83971 11.4,-68.56401 c 0,0 44,-22.08429 72.5,-13.95248 l 5.7,13.95248 c 0,0 73.32,-1.15558 76.57,55.78138 0,0 7.33,52.30039 17.92,61.60204 0,0 17.92,-5.8064 35.84,31.38594 l 19.55,95.29913 c 0,0 51.32,68.56401 35.84,131.32163 0,0 -21.18,42.99874 -128.71,13.95248 0,0 -114.86,49.93218 -176,-18.54624 0.07,0.0143 -101.76,27.90496 -123.76,-18.57477 z" style="fill:#828282;fill-opacity:1;stroke-width:1.194;stroke-miterlimit:10;stroke-dasharray:none"/><path id="path294" fill="none" stroke="#000" stroke-miterlimit="10" d="m 113.27741,803.90388 c 0,0 16.29,-32.54152 15.48,-55.78138 -0.81,-23.23986 3.84,-79.96282 3.84,-79.96282" opacity=".1" style="opacity:.21865;stroke-width:1.194;stroke-miterlimit:10;stroke-dasharray:none"/><path id="path296" fill="none" stroke="#000" stroke-miterlimit="10" d="m 172.74741,716.73656 c 0,0 16.29,-42.99874 14.66,-66.2386 0,0 17.11,-44.22565 30.14,-40.67333" opacity=".1" style="opacity:.21865;stroke-width:1.194;stroke-miterlimit:10;stroke-dasharray:none"/><path id="path298" fill="none" stroke="#000" stroke-miterlimit="10" d="m 262.35741,594.71658 c 0,0 44.8,-23.23986 47.25,-41.84317" opacity=".1" style="opacity:.21865;stroke-width:1.194;stroke-miterlimit:10;stroke-dasharray:none"/><path id="path300" fill="none" stroke="#000" stroke-miterlimit="10" d="m 278.64741,648.17254 c 0,0 47.25,-30.15903 47.25,-38.34791 h 23.62 c 0,0 34.21,63.91319 30.14,91.81814" opacity=".1" style="opacity:.21865;stroke-width:1.194;stroke-miterlimit:10;stroke-dasharray:none"/><path id="path302" fill="none" stroke="#000" stroke-miterlimit="10" d="m 334.04741,694.65227 c 0,0 -45.62,-4.65083 -61.91,13.95248 -16.29,18.6033 -45.62,27.89068 -45.62,27.89068 0,0 -17.11,52.3004 -23.62,61.60205 -6.51,9.30165 -17.11,41.84316 -17.11,41.84316" opacity=".1" style="opacity:.21865;stroke-width:1.194;stroke-miterlimit:10;stroke-dasharray:none"/><path id="path304" fill="none" stroke="#000" stroke-miterlimit="10" d="m 334.04741,756.25431 c 0,0 4.85,24.39544 11.4,38.34791 6.55,13.95248 16.29,63.91319 16.29,63.91319" opacity=".1" style="opacity:.21865;stroke-width:1.194;stroke-miterlimit:10;stroke-dasharray:none"/><path id="path306" fill="none" stroke="#000" stroke-miterlimit="10" d="m 410.61741,827.14374 c 0,0 10.34,41.04425 19.43,41.37238" opacity=".1" style="opacity:.21865;stroke-width:1.194;stroke-miterlimit:10;stroke-dasharray:none"/><path id="path308" fill="none" stroke="#000" stroke-miterlimit="10" d="m 342.89741,650.96874 c 0,0 26.86,10.35736 38.09,35.45185 11.23,25.09449 45.57,47.86356 45.57,47.86356" opacity=".1" style="opacity:.21865;stroke-width:1.194;stroke-miterlimit:10;stroke-dasharray:none"/><path id="path310" fill="none" stroke="#000" stroke-miterlimit="10" d="m 354.40741,527.30814 c 0,0 0,53.45596 10.59,53.45596 10.59,0 34.22,5.86346 34.22,5.86346" opacity=".1" style="opacity:.21865;stroke-width:1.194;stroke-miterlimit:10;stroke-dasharray:none"/><path id="path312" fill="none" stroke="#000" stroke-miterlimit="10" d="m 302.53741,463.86574 c 0,0 -2.71,92.34599 -16.55,116.24211" opacity=".1" style="opacity:.21865;stroke-width:1.194;stroke-miterlimit:10;stroke-dasharray:none"/><g style="opacity:.09003215;stroke-width:.99965;stroke-miterlimit:10;stroke-dasharray:none" id="g320" opacity=".05" transform="matrix(1,0,0,1.4266337,-291.46259,-279.36762)"><path style="stroke-width:.99965;stroke-miterlimit:10;stroke-dasharray:none" id="path314" d="m 811.08,706.94 -19.55,-66.8 c -17.92,-26.07 -35.84,-22 -35.84,-22 C 745.1,611.63 737.77,575 737.77,575 734.51,535.08 661.2,535.9 661.2,535.9 l -5.7,-9.78 c -7.22,-1.44 -15.43,-1.53 -23.66,-0.85 2,0.2 3.89,0.48 5.74,0.85 l 5.7,9.78 c 0,0 73.32,-0.81 76.57,39.1 0,0 7.33,36.66 17.92,43.18 0,0 17.92,-4.07 35.84,22 l 19.55,66.8 c 0,0 51.32,48.02 35.84,92.02 0,0 -10.45,14.87 -53.93,16.66 58.61,2.15 71.85,-16.66 71.85,-16.66 15.48,-44 -35.84,-92.06 -35.84,-92.06 z" transform="translate(-66.64,-11.98)"/><path style="stroke-width:.99965;stroke-miterlimit:10;stroke-dasharray:none" id="path316" d="m 524.33,795.74 a 380.76,380.76 0 0 1 -52.19,5.65 c 20.4,0.78 41.63,-1.42 55.31,-3.31 q -1.57,-1.14 -3.12,-2.34 z" transform="translate(-66.64,-11.98)"/><path style="stroke-width:.99965;stroke-miterlimit:10;stroke-dasharray:none" id="path318" d="m 700.29,808.77 a 334.73,334.73 0 0 1 -76.93,12.16 c 37.55,1.36 73.12,-6.46 87.79,-10.22 -3.52,-0.59 -7.15,-1.23 -10.86,-1.94 z" transform="translate(-66.64,-11.98)"/></g></svg>