<?xml version="1.0" encoding="UTF-8" standalone="no"?>
<svg
   xmlns:dc="http://purl.org/dc/elements/1.1/"
   xmlns:cc="http://creativecommons.org/ns#"
   xmlns:rdf="http://www.w3.org/1999/02/22-rdf-syntax-ns#"
   xmlns:svg="http://www.w3.org/2000/svg"
   xmlns="http://www.w3.org/2000/svg"
   xmlns:xlink="http://www.w3.org/1999/xlink"
   xmlns:sodipodi="http://sodipodi.sourceforge.net/DTD/sodipodi-0.dtd"
   xmlns:inkscape="http://www.inkscape.org/namespaces/inkscape"
   inkscape:version="1.0 (4035a4f, 2020-05-01)"
   sodipodi:docname="Rock5.svg"
   version="1.1"
   viewBox="0 0 566.61 876.03"
   height="876.03"
   width="566.61"
   data-name="Layer 1"
   id="30b67e24-71e0-4c14-b173-6690a8f5300f">
  <metadata
     id="metadata373">
    <rdf:RDF>
      <cc:Work
         rdf:about="">
        <dc:format>image/svg+xml</dc:format>
        <dc:type
           rdf:resource="http://purl.org/dc/dcmitype/StillImage" />
        <dc:title>be_the_hero</dc:title>
      </cc:Work>
    </rdf:RDF>
  </metadata>
  <sodipodi:namedview
     inkscape:current-layer="30b67e24-71e0-4c14-b173-6690a8f5300f"
     inkscape:window-maximized="0"
     inkscape:window-y="23"
     inkscape:window-x="-15"
     inkscape:cy="352.56424"
     inkscape:cx="57.340297"
     inkscape:zoom="0.40922896"
     inkscape:snap-nodes="false"
     showgrid="false"
     id="namedview371"
     inkscape:window-height="671"
     inkscape:window-width="1280"
     inkscape:pageshadow="2"
     inkscape:pageopacity="0"
     guidetolerance="10"
     gridtolerance="10"
     objecttolerance="10"
     borderopacity="1"
     bordercolor="#666666"
     pagecolor="#ffffff"
     inkscape:document-rotation="0" />
  <defs
     id="defs226">
    <inkscape:perspective
       id="perspective1317"
       inkscape:persp3d-origin="533.305 : 292.01 : 1"
       inkscape:vp_z="1066.61 : 438.015 : 1"
       inkscape:vp_y="0 : 1000 : 0"
       inkscape:vp_x="0 : 438.015 : 1"
       sodipodi:type="inkscape:persp3d" />
    <linearGradient
       gradientUnits="userSpaceOnUse"
       gradientTransform="translate(51.69 -65.88) rotate(6.1)"
       y2="108.23"
       x2="660.62"
       y1="785.23"
       x1="660.62"
       id="80eb2e63-b174-4995-98de-a6f06d09e993">
      <stop
         id="stop218"
         stop-opacity="0.25"
         stop-color="gray"
         offset="0" />
      <stop
         id="stop220"
         stop-opacity="0.12"
         stop-color="gray"
         offset="0.54" />
      <stop
         id="stop222"
         stop-opacity="0.1"
         stop-color="gray"
         offset="1" />
    </linearGradient>
    <linearGradient
       xlink:href="#80eb2e63-b174-4995-98de-a6f06d09e993"
       gradientTransform="matrix(0.97, 0.05, -0.05, 1, 52.93, -28.22)"
       y2="226.73"
       x2="636.28"
       y1="829.65"
       x1="636.28"
       id="897a3ab3-8922-4256-a8e6-4a2ee8dcb308" />
    <rect
       id="rect58"
       height="58.233471"
       width="91.663795"
       y="133.7213"
       x="306.26492" />
    <rect
       id="rect103"
       height="58.233471"
       width="91.663795"
       y="133.7213"
       x="306.26492" />
  </defs>
  <title
     id="title228">be_the_hero</title>
  <path
     style="stroke-width:1.19442"
     id="path234"
     fill="#444176"
     d="m 109.70741,703.89685 c 0,0 -23.23,43.55513 -42.45,43.94032 -19.22,0.38519 -30.55,18.34651 -21.41,29.58838 9.14,11.24188 108.74,-6.41985 108.74,-6.41985 0,0 0.94,-53.52729 -7.68,-61.34525 -8.62,-7.81795 -37.2,-5.7636 -37.2,-5.7636 z" />
  <path
     style="stroke-width:1.19442"
     id="path236"
     fill="#444176"
     d="m 359.15741,756.18298 c 0,0 3.56,34.496 -7.42,58.02119 -10.98,23.52519 19.82,32.59858 19.82,32.59858 0,0 22.37,8.88793 24,-22.62641 1.63,-31.51434 1.1,-55.63871 -1,-58.20665 -2.1,-2.56794 -3.85,-20.301 -3.85,-20.301 z" />
  <rect
     style="fill:#489cc1;fill-opacity:1;stroke-width:1.19442"
     id="rect280"
     fill="#ffffff"
     transform="rotate(-90)"
     height="18.74"
     width="125.51524"
     y="249.7"
     x="-154.55022" />
  <rect
     style="stroke-width:1.30411"
     id="rect282"
     fill="#f0f5fa"
     transform="rotate(-90)"
     height="31.77"
     width="335.27979"
     y="242.36198"
     x="-496.80515" />
  <rect
     style="stroke-width:1.19442"
     id="rect286"
     opacity="0.1"
     transform="rotate(-90)"
     height="31.77"
     width="11.627064"
     y="242.37071"
     x="-173.16156" />
  <rect
     style="stroke-width:1.19442"
     id="rect288"
     opacity="0.1"
     transform="rotate(-90)"
     height="18.74"
     width="12.782638"
     y="249.70027"
     x="-154.55742" />
  <rect
     style="fill:#dfb361;fill-opacity:1;stroke-width:1.19442"
     id="rect290"
     fill="#ffffff"
     ry="13.952477"
     rx="9.7799997"
     height="27.890688"
     width="116.49"
     y="142.90656"
     x="200.85863" />
  <path
     style="stroke-width:1.19442"
     id="path292"
     fill="#a8a8a8"
     d="m 7.9574098,821.33734 c 0,0 -0.81,-111.56275 76.5700002,-156.92971 l 17.92,-48.80513 18.74,-65.08303 39.92,-12.83971 11.4,-68.56401 c 0,0 44,-22.08429 72.5,-13.95248 l 5.7,13.95248 c 0,0 73.32,-1.15558 76.57,55.78138 0,0 7.33,52.30039 17.92,61.60204 0,0 17.92,-5.8064 35.84,31.38594 l 19.55,95.29913 c 0,0 51.32,68.56401 35.84,131.32163 0,0 -21.18,42.99874 -128.71,13.95248 0,0 -114.86,49.93218 -176,-18.54624 0.07,0.0143 -101.76,27.90496 -123.7600002,-18.57477 z" />
  <path
     style="stroke-width:1.19442"
     id="path294"
     opacity="0.1"
     stroke-miterlimit="10"
     stroke="#000000"
     fill="none"
     d="m 59.27741,803.90388 c 0,0 16.29,-32.54152 15.48,-55.78138 -0.81,-23.23986 3.84,-79.96282 3.84,-79.96282" />
  <path
     style="stroke-width:1.19442"
     id="path296"
     opacity="0.1"
     stroke-miterlimit="10"
     stroke="#000000"
     fill="none"
     d="m 118.74741,716.73656 c 0,0 16.29,-42.99874 14.66,-66.2386 0,0 17.11,-44.22565 30.14,-40.67333" />
  <path
     style="stroke-width:1.19442"
     id="path298"
     opacity="0.1"
     stroke-miterlimit="10"
     stroke="#000000"
     fill="none"
     d="m 208.35741,594.71658 c 0,0 44.8,-23.23986 47.25,-41.84317" />
  <path
     style="stroke-width:1.19442"
     id="path300"
     opacity="0.1"
     stroke-miterlimit="10"
     stroke="#000000"
     fill="none"
     d="m 224.64741,648.17254 c 0,0 47.25,-30.15903 47.25,-38.34791 h 23.62 c 0,0 34.21,63.91319 30.14,91.81814" />
  <path
     style="stroke-width:1.19442"
     id="path302"
     opacity="0.1"
     stroke-miterlimit="10"
     stroke="#000000"
     fill="none"
     d="m 280.04741,694.65227 c 0,0 -45.62,-4.65083 -61.91,13.95248 -16.29,18.6033 -45.62,27.89068 -45.62,27.89068 0,0 -17.11,52.3004 -23.62,61.60205 -6.51,9.30165 -17.11,41.84316 -17.11,41.84316" />
  <path
     style="stroke-width:1.19442"
     id="path304"
     opacity="0.1"
     stroke-miterlimit="10"
     stroke="#000000"
     fill="none"
     d="m 280.04741,756.25431 c 0,0 4.85,24.39544 11.4,38.34791 6.55,13.95248 16.29,63.91319 16.29,63.91319" />
  <path
     style="stroke-width:1.19442"
     id="path306"
     opacity="0.1"
     stroke-miterlimit="10"
     stroke="#000000"
     fill="none"
     d="m 356.61741,827.14374 c 0,0 10.34,41.04425 19.43,41.37238" />
  <path
     style="stroke-width:1.19442"
     id="path308"
     opacity="0.1"
     stroke-miterlimit="10"
     stroke="#000000"
     fill="none"
     d="m 288.89741,650.96874 c 0,0 26.86,10.35736 38.09,35.45185 11.23,25.09449 45.57,47.86356 45.57,47.86356" />
  <path
     style="stroke-width:1.19442"
     id="path310"
     opacity="0.1"
     stroke-miterlimit="10"
     stroke="#000000"
     fill="none"
     d="m 300.40741,527.30814 c 0,0 0,53.45596 10.59,53.45596 10.59,0 34.22,5.86346 34.22,5.86346" />
  <path
     style="stroke-width:1.19442"
     id="path312"
     opacity="0.1"
     stroke-miterlimit="10"
     stroke="#000000"
     fill="none"
     d="m 248.53741,463.86574 c 0,0 -2.71,92.34599 -16.55,116.24211" />
  <g
     id="g320"
     opacity="0.05"
     transform="matrix(1,0,0,1.4266337,-345.46259,-279.36762)">
    <path
       id="path314"
       transform="translate(-66.64,-11.98)"
       d="m 811.08,706.94 -19.55,-66.8 c -17.92,-26.07 -35.84,-22 -35.84,-22 C 745.1,611.63 737.77,575 737.77,575 734.51,535.08 661.2,535.9 661.2,535.9 l -5.7,-9.78 c -7.22,-1.44 -15.43,-1.53 -23.66,-0.85 2,0.2 3.89,0.48 5.74,0.85 l 5.7,9.78 c 0,0 73.32,-0.81 76.57,39.1 0,0 7.33,36.66 17.92,43.18 0,0 17.92,-4.07 35.84,22 l 19.55,66.8 c 0,0 51.32,48.02 35.84,92.02 0,0 -10.45,14.87 -53.93,16.66 58.61,2.15 71.85,-16.66 71.85,-16.66 15.48,-44 -35.84,-92.06 -35.84,-92.06 z" />
    <path
       id="path316"
       transform="translate(-66.64,-11.98)"
       d="m 524.33,795.74 a 380.76,380.76 0 0 1 -52.19,5.65 c 20.4,0.78 41.63,-1.42 55.31,-3.31 q -1.57,-1.14 -3.12,-2.34 z" />
    <path
       id="path318"
       transform="translate(-66.64,-11.98)"
       d="m 700.29,808.77 a 334.73,334.73 0 0 1 -76.93,12.16 c 37.55,1.36 73.12,-6.46 87.79,-10.22 -3.52,-0.59 -7.15,-1.23 -10.86,-1.94 z" />
  </g>
  <rect
     style="stroke-width:1.19442"
     id="rect322"
     opacity="0.05"
     height="113.88817"
     width="9.7799997"
     y="28.445866"
     x="258.30307" />
  <ellipse
     ry="14.66"
     rx="20.91445"
     style="fill:#489cc1;fill-opacity:1;stroke-width:1.19442"
     id="circle326"
     fill="#ffffff"
     transform="rotate(-90)"
     cy="259.07144"
     cx="-20.91445" />
</svg>
