<svg xmlns="http://www.w3.org/2000/svg" xmlns:osb="http://www.openswatchbook.org/uri/2009/osb" xmlns:svg="http://www.w3.org/2000/svg" id="svg8" width="210mm" height="297mm" version="1.1" viewBox="0 0 210 297"><defs id="defs2"><linearGradient id="linearGradient843" osb:paint="solid"><stop style="stop-color:#000;stop-opacity:1" id="stop841" offset="0"/></linearGradient><linearGradient id="linearGradient837" osb:paint="solid"><stop style="stop-color:#000;stop-opacity:1" id="stop835" offset="0"/></linearGradient></defs><metadata id="metadata5"/><g id="layer1"><g id="g885"><g id="g912"><path id="rect833" d="m 110.23427,281.51825 -6.75169,11.48265 -6.751687,-11.48265 V 63.526389 h 13.503377 z" style="fill:#f0f5fa;fill-opacity:1;stroke:#000;stroke-width:1.85208;stroke-miterlimit:4;stroke-dasharray:none;stroke-opacity:1"/><path style="fill:none;stroke:#000;stroke-width:1.85208;stroke-linecap:butt;stroke-linejoin:miter;stroke-miterlimit:4;stroke-dasharray:none;stroke-opacity:1" id="path848" d="m 102.99299,293.0009 c 0,-184.89567 0.51844,-229.108271 0.51844,-229.108271"/><rect style="fill:#449bc3;fill-opacity:1;stroke:#000;stroke-width:1.85208;stroke-linejoin:miter;stroke-miterlimit:4;stroke-dasharray:none;stroke-opacity:1" id="rect855" width="20.678" height="6.441" x="-114.41" y="-55.521" ry="3.221" transform="scale(-1)"/><path id="rect850" d="M 125.54846,70.536361 103.48258,64.882899 81.4167,70.536361 v -4.62556 -4.625567 l 22.06588,-5.653462 22.06588,5.653462 v 4.625567 z" style="fill:#e0b45a;fill-opacity:1;stroke:#000;stroke-width:1.85208;stroke-linejoin:miter;stroke-miterlimit:4;stroke-dasharray:none;stroke-opacity:1"/><rect id="rect860" width="20.678" height="6.441" x="-114.41" y="-50.209" ry="3.221" transform="scale(-1)" style="fill:#449bc3;fill-opacity:1;stroke:#000;stroke-width:1.85208;stroke-linejoin:miter;stroke-miterlimit:4;stroke-dasharray:none;stroke-opacity:1"/><rect style="fill:#449bc3;fill-opacity:1;stroke:#000;stroke-width:1.85208;stroke-linejoin:miter;stroke-miterlimit:4;stroke-dasharray:none;stroke-opacity:1" id="rect862" width="20.678" height="6.441" x="-114.41" y="-28.959" ry="3.221" transform="scale(-1)"/><rect id="rect864" width="20.678" height="6.441" x="-114.41" y="-34.271" ry="3.221" transform="scale(-1)" style="fill:#449bc3;fill-opacity:1;stroke:#000;stroke-width:1.85208;stroke-linejoin:miter;stroke-miterlimit:4;stroke-dasharray:none;stroke-opacity:1"/><rect style="fill:#449bc3;fill-opacity:1;stroke:#000;stroke-width:1.85208;stroke-linejoin:miter;stroke-miterlimit:4;stroke-dasharray:none;stroke-opacity:1" id="rect866" width="20.678" height="6.441" x="-114.41" y="-39.584" ry="3.221" transform="scale(-1)"/><rect id="rect868" width="20.678" height="6.441" x="-114.41" y="-44.896" ry="3.221" transform="scale(-1)" style="fill:#449bc3;fill-opacity:1;stroke:#000;stroke-width:1.85208;stroke-linejoin:miter;stroke-miterlimit:4;stroke-dasharray:none;stroke-opacity:1"/><path style="fill:#333;fill-opacity:1;stroke:#000;stroke-width:6.99999;stroke-linejoin:miter;stroke-miterlimit:4;stroke-dasharray:none;stroke-opacity:1" id="path870" d="M 393.32422 13.271484 A -34.702509 -35.330579 0 0 0 358.62109 48.601562 A -34.702509 -35.330579 0 0 0 393.32422 83.931641 A -34.702509 -35.330579 0 0 0 428.02734 48.601562 A -34.702509 -35.330579 0 0 0 393.32422 13.271484 z M 393.32422 29.708984 A -18.556227 -18.892069 0 0 1 411.88086 48.601562 A -18.556227 -18.892069 0 0 1 393.32422 67.494141 A -18.556227 -18.892069 0 0 1 374.76758 48.601562 A -18.556227 -18.892069 0 0 1 393.32422 29.708984 z" transform="scale(0.26458333)"/></g></g></g></svg>