<?xml version="1.0" encoding="UTF-8" standalone="no"?>
<svg
   xmlns:dc="http://purl.org/dc/elements/1.1/"
   xmlns:cc="http://creativecommons.org/ns#"
   xmlns:rdf="http://www.w3.org/1999/02/22-rdf-syntax-ns#"
   xmlns:svg="http://www.w3.org/2000/svg"
   xmlns="http://www.w3.org/2000/svg"
   xmlns:sodipodi="http://sodipodi.sourceforge.net/DTD/sodipodi-0.dtd"
   xmlns:inkscape="http://www.inkscape.org/namespaces/inkscape"
   inkscape:version="1.0 (4035a4f, 2020-05-01)"
   sodipodi:docname="iconfinder_21_Angular_logo_logos_4373284.svg"
   id="svg16"
   xml:space="preserve"
   width="512px"
   viewBox="0 0 512 512"
   version="1.1"
   style="enable-background:new 0 0 512 512;"
   height="512px"><metadata
     id="metadata22"><rdf:RDF><cc:Work
         rdf:about=""><dc:format>image/svg+xml</dc:format><dc:type
           rdf:resource="http://purl.org/dc/dcmitype/StillImage" /></cc:Work></rdf:RDF></metadata><defs
     id="defs20" /><sodipodi:namedview
     inkscape:current-layer="svg16"
     inkscape:window-maximized="0"
     inkscape:window-y="0"
     inkscape:window-x="0"
     inkscape:cy="256"
     inkscape:cx="256"
     inkscape:zoom="0.94140625"
     showgrid="false"
     id="namedview18"
     inkscape:window-height="800"
     inkscape:window-width="1280"
     inkscape:pageshadow="2"
     inkscape:pageopacity="0"
     guidetolerance="10"
     gridtolerance="10"
     objecttolerance="10"
     borderopacity="1"
     bordercolor="#666666"
     pagecolor="#ffffff" /><g
     id="_x32_1-angular"><g
       id="g12"><path
         id="path10"
         style="fill:#DD0031;"
         d="M216.879,268.426h78.241L256,174.372L216.879,268.426L216.879,268.426z M256,26.001L42.635,102.395    l32.652,283.081L256,485.999l180.712-100.523l32.653-283.081L256,26.001z M389.688,376.957h-49.904l-26.9-67.153H199.321    l-26.903,67.153h-50.003L256,76.827L389.688,376.957z" /></g></g><g
     id="Layer_1" /><path
     id="path28"
     d="m 124.06318,374.70539 c 1.41935,-3.49362 131.56754,-295.553263 131.81555,-295.801271 0.22333,-0.223335 130.05096,290.520731 132.08585,295.801271 0.40024,1.03863 -4.77608,1.32547 -23.76794,1.31709 l -24.27963,-0.0107 -13.27801,-33.44709 -13.278,-33.44708 -57.31077,0.26278 -57.31076,0.26277 -13.2651,33.19502 -13.26511,33.19503 H 147.8665 c -19.05375,0 -24.22555,-0.2885 -23.80332,-1.32781 z m 170.1576,-109.9419 c -9.54709,-23.8275 -37.65171,-90.0249 -38.22078,-90.0249 -0.56907,0 -28.67369,66.1974 -38.22077,90.0249 l -1.59605,3.9834 H 256 295.81683 Z"
     style="opacity:0.5;fill:#f9f9f9;stroke-width:1.06224" /><path
     id="path36"
     d="m 125.27766,374.64897 c -0.40754,-1.06205 60.61169,-140.11812 80.26478,-182.91453 1.87805,-4.08963 9.76039,-21.77593 17.5163,-39.3029 7.75592,-17.52698 15.29949,-34.49627 16.7635,-37.70955 2.5286,-5.54988 5.06007,-11.20445 9.2732,-20.713691 1.03538,-2.33693 2.93275,-6.580574 4.21636,-9.43032 l 2.33383,-5.181358 1.90342,3.129938 c 1.0469,1.721466 2.27003,4.292081 2.7181,5.712478 0.44806,1.420396 2.37254,5.928598 4.27664,10.018224 5.68157,12.202949 10.04542,21.898309 10.04542,22.318359 0,0.21681 1.85752,4.36603 4.12781,9.22049 2.27029,4.85446 5.0839,10.97733 6.25247,13.60638 1.16856,2.62905 3.18557,7.17012 4.48222,10.09129 1.29667,2.92116 3.03508,6.77301 3.86315,8.55967 0.82806,1.78666 22.45547,50.3045 48.06092,107.81743 38.65588,86.82579 46.2669,104.69146 44.85535,105.29097 -0.93501,0.39712 -11.73818,0.75544 -24.00706,0.7963 l -22.30706,0.0743 -13.19872,-33.46925 -13.19873,-33.46925 -57.39005,0.27462 -57.39004,0.27463 -13.2651,33.19502 -13.26511,33.19503 h -23.20021 c -18.08469,0 -23.31733,-0.30522 -23.73139,-1.38423 z M 294.17322,264.76349 c -0.92913,-2.19088 -4.0301,-9.71951 -6.89106,-16.73029 C 271.94895,210.45907 256.78685,175.11787 256,175.11787 c -0.78385,0 -15.47504,34.26638 -31.26134,72.91533 -2.86358,7.01078 -5.97031,14.53941 -6.90385,16.73029 l -1.69735,3.9834 H 256 295.86254 Z"
     style="opacity:0.5;fill:#ececec;stroke-width:1.06224" /></svg>
